name C:\Users\u0101727\Documents\MyRepositories\upper-imu-dc\Results\main_tracking\Case_43\FLX01_linearAccelerations_groundFrame.mot
datacolumns 4
datarows 105
range 5.01000000 6.05000000
endheader 
time	radius_imu_x	radius_imu_y	radius_imu_z	
          5.01000000	          0.40308460	         11.36027210	         -2.62644831	
          5.02000000	          0.51965843	         11.48147696	         -2.65593609	
          5.03000000	          0.60177872	         11.40737476	         -2.80143893	
          5.04000000	          0.62528148	         11.37503996	         -2.71717556	
          5.05000000	          0.65804726	         11.34694178	         -2.66518493	
          5.06000000	          0.67641577	         11.30756811	         -2.60800824	
          5.07000000	          0.68253840	         11.25996213	         -2.54914271	
          5.08000000	          0.67649229	         11.20492777	         -2.49010101	
          5.09000000	          0.65895944	         11.14347030	         -2.43185758	
          5.10000000	          0.62878516	         11.07602128	         -2.37199376	
          5.11000000	          0.58695385	         11.00452551	         -2.31057078	
          5.12000000	          0.53490031	         10.93126028	         -2.24824947	
          5.13000000	          0.47355208	         10.85795094	         -2.18444924	
          5.14000000	          0.40377793	         10.78594118	         -2.11850196	
          5.15000000	          0.32681075	         10.71667889	         -2.05033049	
          5.16000000	          0.24402022	         10.65149513	         -1.97980382	
          5.17000000	          0.15684369	         10.59175628	         -1.90668033	
          5.18000000	          0.06688106	         10.53888315	         -1.83064019	
          5.19000000	         -0.02415473	         10.49421951	         -1.75139219	
          5.20000000	         -0.11442984	         10.45922711	         -1.66859674	
          5.21000000	         -0.20220404	         10.43507979	         -1.58193769	
          5.22000000	         -0.28601042	         10.42224888	         -1.49135844	
          5.23000000	         -0.36475580	         10.42046257	         -1.39704664	
          5.24000000	         -0.43777754	         10.42858241	         -1.29957908	
          5.25000000	         -0.50485201	         10.44467992	         -1.19992723	
          5.26000000	         -0.56625466	         10.46637071	         -1.09909237	
          5.27000000	         -0.62281009	         10.49092724	         -0.99797702	
          5.28000000	         -0.67575934	         10.51541005	         -0.89751757	
          5.29000000	         -0.72647034	         10.53709725	         -0.79869795	
          5.30000000	         -0.77619674	         10.55380850	         -0.70252095	
          5.31000000	         -0.82598504	         10.56403916	         -0.60989474	
          5.32000000	         -0.87651569	         10.56716360	         -0.52148440	
          5.33000000	         -0.92797482	         10.56352335	         -0.43759355	
          5.34000000	         -0.98012040	         10.55423146	         -0.35809228	
          5.35000000	         -1.03225945	         10.54094826	         -0.28256972	
          5.36000000	         -1.08326337	         10.52563124	         -0.21053604	
          5.37000000	         -1.13197095	         10.51003200	         -0.14149254	
          5.38000000	         -1.17759949	         10.49519786	         -0.07511918	
          5.39000000	         -1.21974409	         10.48137953	         -0.01158400	
          5.40000000	         -1.25823318	         10.46824818	          0.04838266	
          5.41000000	         -1.29308629	         10.45517897	          0.10371297	
          5.42000000	         -1.32446446	         10.44153947	          0.15329425	
          5.43000000	         -1.35255791	         10.42690853	          0.19615278	
          5.44000000	         -1.37746976	         10.41113817	          0.23147236	
          5.45000000	         -1.39921680	         10.39427712	          0.25858055	
          5.46000000	         -1.41782429	         10.37647491	          0.27701157	
          5.47000000	         -1.43339771	         10.35794791	          0.28660280	
          5.48000000	         -1.44607579	         10.33901180	          0.28750583	
          5.49000000	         -1.45584509	         10.32013276	          0.28007488	
          5.50000000	         -1.46257538	         10.30188637	          0.26484795	
          5.51000000	         -1.46596036	         10.28490456	          0.24241090	
          5.52000000	         -1.46566695	         10.26977514	          0.21340803	
          5.53000000	         -1.46130813	         10.25702156	          0.17849083	
          5.54000000	         -1.45248397	         10.24714713	          0.13844301	
          5.55000000	         -1.43876156	         10.24063488	          0.09420079	
          5.56000000	         -1.41980004	         10.23775056	          0.04666490	
          5.57000000	         -1.39557087	         10.23825729	         -0.00359765	
          5.58000000	         -1.36631967	         10.24164526	         -0.05611998	
          5.59000000	         -1.33212241	         10.24794612	         -0.10961492	
          5.60000000	         -1.29303776	         10.25741405	         -0.16232547	
          5.61000000	         -1.24971214	         10.26946551	         -0.21335013	
          5.62000000	         -1.20257268	         10.28406378	         -0.26112064	
          5.63000000	         -1.15098342	         10.30270656	         -0.30222926	
          5.64000000	         -1.09507452	         10.32544497	         -0.33499427	
          5.65000000	         -1.03601977	         10.35061157	         -0.36020706	
          5.66000000	         -0.97432932	         10.37744973	         -0.37785658	
          5.67000000	         -0.91161303	         10.40378220	         -0.39013122	
          5.68000000	         -0.85048343	         10.42660895	         -0.40069529	
          5.69000000	         -0.79150291	         10.44626648	         -0.40894372	
          5.70000000	         -0.73377150	         10.46498244	         -0.41150823	
          5.71000000	         -0.67927663	         10.48083228	         -0.41100616	
          5.72000000	         -0.62966477	         10.49199020	         -0.41057060	
          5.73000000	         -0.58123619	         10.50335339	         -0.40302264	
          5.74000000	         -0.53550003	         10.51283001	         -0.39185038	
          5.75000000	         -0.49551505	         10.51628368	         -0.38419945	
          5.76000000	         -0.45409508	         10.52274107	         -0.36561244	
          5.77000000	         -0.41603055	         10.52626483	         -0.34572834	
          5.78000000	         -0.38058502	         10.52801105	         -0.32273453	
          5.79000000	         -0.34704430	         10.52854274	         -0.29584489	
          5.80000000	         -0.31701553	         10.52595819	         -0.26886074	
          5.81000000	         -0.29062093	         10.52006804	         -0.24281307	
          5.82000000	         -0.26779730	         10.51168800	         -0.21669250	
          5.83000000	         -0.24757048	         10.50288525	         -0.18683506	
          5.84000000	         -0.22902213	         10.49474954	         -0.15146458	
          5.85000000	         -0.21200268	         10.48602971	         -0.11424458	
          5.86000000	         -0.19585108	         10.47492484	         -0.08086827	
          5.87000000	         -0.17884320	         10.46111579	         -0.05424643	
          5.88000000	         -0.15898166	         10.44570719	         -0.03375020	
          5.89000000	         -0.13475756	         10.43009867	         -0.01739239	
          5.90000000	         -0.10515167	         10.41518859	         -0.00385470	
          5.91000000	         -0.06967621	         10.40122837	          0.00696337	
          5.92000000	         -0.02854451	         10.38804972	          0.01438482	
          5.93000000	          0.01805835	         10.37532791	          0.01737226	
          5.94000000	          0.06983373	         10.36265372	          0.01468284	
          5.95000000	          0.12485756	         10.34948593	          0.00506115	
          5.96000000	          0.18040143	         10.33524890	         -0.01269512	
          5.97000000	          0.23439173	         10.31945314	         -0.03979803	
          5.98000000	          0.28472273	         10.30191139	         -0.07666602	
          5.99000000	          0.32933988	         10.28268375	         -0.12297060	
          6.00000000	          0.36685034	         10.26176211	         -0.17865114	
          6.01000000	          0.39560288	         10.23956920	         -0.24217615	
          6.02000000	          0.41573592	         10.21622224	         -0.31310589	
          6.03000000	          0.42754426	         10.19195253	         -0.39050578	
          6.04000000	          0.43080764	         10.16717033	         -0.47249471	
          6.05000000	          0.42486420	         10.14165702	         -0.55885727	
